<svg width="183" height="63" viewBox="0 0 183 63" fill="none" xmlns="http://www.w3.org/2000/svg">
<g clip-path="url(#clip0_1_799)" filter="url(#filter0_d_1_799)">
<path fill-rule="evenodd" clip-rule="evenodd" d="M17.565 54.3689H21.6359V32.6214H17.565V54.3689ZM32.4876 54.0427H36.1337V40.3214L51.4811 54.3689V32.9476H47.8451V46.4345L32.4876 32.6214V54.0427ZM59.8046 48.7757C61.7891 50.3218 64.1711 51.2155 66.7248 51.2155C69.2121 51.2155 70.957 50.3592 70.957 48.4682C70.957 46.8201 69.8442 46.1745 67.8954 45.4524L64.7403 44.3566C61.8316 43.3235 59.6194 41.8148 59.6194 38.3471C59.6194 34.6381 62.9682 32.6214 66.9728 32.6214C69.4262 32.6214 71.6621 33.2381 73.4087 34.3306V38.009C71.5925 36.6667 69.6046 35.7425 67.051 35.7425C64.8524 35.7425 63.2095 36.5631 63.2095 38.274C63.2095 39.8201 64.2408 40.4386 66.057 41.0604L69.5723 42.2939C72.9789 43.4917 74.542 45.3488 74.542 48.4036C74.542 52.2468 71.1609 54.3689 66.7248 54.3689C63.8092 54.3689 61.3303 53.5534 59.8046 52.5238V48.7757ZM84.0396 54.3689H88.1087V32.6214H84.0396V54.3689ZM107.199 51.0779C111.786 51.0779 114.238 48.1352 114.238 43.49C114.238 38.8109 111.785 35.8784 107.199 35.8784H102.663V51.0779H107.199ZM98.9587 32.6214H107.335C113.783 32.6214 117.952 36.8689 117.952 43.49C117.952 50.1163 113.783 54.3689 107.335 54.3689H98.9587V32.6214ZM138.303 32.6214V35.8784H128.454V41.1114H137.287V44.3311H128.452V51.0779H138.303V54.3689H124.736V32.6214H138.303ZM152.748 42.4689H156.787C159.177 42.4689 160.525 41.1573 160.525 39.1405C160.525 37.1238 159.177 35.8104 156.787 35.8104H152.748V42.4706V42.4689ZM152.748 45.5442V54.3689H149.155V32.6214H156.855C161.245 32.6214 164.086 34.8828 164.086 39.1405C164.086 42.7816 162.509 44.8731 159.15 45.41L166.791 54.3689H162.703L155.305 45.5459H152.75L152.748 45.5442ZM16.143 11.1966C17.735 10.6138 18.9752 8.86553 18.9752 6.46141C18.9752 2.4551 16.143 0.378883 11.6117 0.378883H4V22.7432H12.3184C16.8498 22.7432 19.682 20.5209 19.682 16.3328C19.682 13.9643 18.1954 11.8881 16.143 11.1966ZM7.57476 9.77621V3.65801H11.5777C14.0922 3.65801 15.4362 4.56869 15.4362 6.68058C15.4362 8.79248 14.0905 9.77621 11.5777 9.77621H7.57476ZM7.57476 12.9092H12.2471C14.7277 12.9092 16.0716 14.1461 16.0716 16.1867C16.0716 18.1898 14.726 19.4658 12.2488 19.4658H7.57646V12.9075L7.57476 12.9092ZM36.29 23.1068C41.4942 23.1068 44.9993 19.9738 44.9993 13.8556V0.378883H41.3175V13.4172C41.3175 17.7158 39.5471 19.7206 36.29 19.7206C33.033 19.7206 31.2643 17.7158 31.2643 13.4172V0.378883H27.5825V13.8182C27.5825 19.9738 31.1216 23.1068 36.29 23.1068ZM53.6677 21.1393C55.19 22.2335 57.6689 23.1068 60.5709 23.1068C64.9968 23.1068 68.3592 20.8471 68.3592 16.7694C68.3592 13.5277 66.8029 11.5602 63.4032 10.2859L59.8998 8.97427C58.0937 8.32015 57.0675 7.66432 57.0675 6.02476C57.0675 4.2034 58.6951 3.3301 60.8903 3.3301C63.4388 3.3301 65.4216 4.31214 67.2277 5.73422V1.83495C65.493 0.671117 63.2621 0.0152913 60.8189 0.0152913C56.8194 0.0152913 53.491 2.16456 53.491 6.09782C53.491 9.77621 55.6862 11.3784 58.5881 12.4709L61.7398 13.6364C63.6869 14.401 64.7845 15.0942 64.7845 16.8425C64.7845 18.8456 63.0498 19.7563 60.5709 19.7563C58.0223 19.7563 55.6505 18.8083 53.6677 17.1704V21.1393ZM81.5148 0.378883H77.8347V22.7415H81.5148V0.378883ZM92.0182 22.7143H95.5658V8.16553L110.497 23.0609V0.344903H106.959V14.6456L92.0182 0V22.7143ZM133.503 0.383981V3.73277H123.945V9.11529H132.516V12.4267H123.945V19.3638H133.503V22.7483H120.336V0.383981H133.503ZM142.075 21.124C143.597 22.2182 146.075 23.0915 148.978 23.0915C153.402 23.0915 156.767 20.8335 156.767 16.7541C156.767 13.5124 155.208 11.5466 151.81 10.2706L148.305 8.96068C146.499 8.30485 145.473 7.64903 145.473 6.00947C145.473 4.18811 147.101 3.31481 149.296 3.31481C151.844 3.31481 153.827 4.29854 155.633 5.71893V1.82136C153.899 0.655825 151.668 0 149.225 0C145.225 0 141.897 2.14927 141.897 6.08252C141.897 9.76092 144.092 11.3631 146.994 12.4556L150.145 13.6211C152.092 14.3857 153.19 15.0789 153.19 16.8272C153.19 18.8303 151.457 19.741 148.976 19.741C146.428 19.741 144.056 18.7947 142.075 17.1551V21.124ZM164.308 21.124C165.831 22.2182 168.31 23.0915 171.212 23.0915C175.638 23.0915 179 20.8335 179 16.7541C179 13.5124 177.442 11.5466 174.044 10.2706L170.539 8.96068C168.734 8.30485 167.707 7.64903 167.707 6.00947C167.707 4.18811 169.336 3.31481 171.529 3.31481C174.078 3.31481 176.062 4.29854 177.867 5.71893V1.82136C176.134 0.655825 173.903 0 171.46 0C167.458 0 164.132 2.14927 164.132 6.08252C164.132 9.76092 166.327 11.3631 169.229 12.4556L172.381 13.6211C174.328 14.3857 175.425 15.0789 175.425 16.8272C175.425 18.8303 173.691 19.741 171.212 19.741C168.663 19.741 166.291 18.7947 164.308 17.1551V21.124Z" fill="white" fill-opacity="0.5"/>
</g>
<defs>
<filter id="filter0_d_1_799" x="0" y="0" width="183" height="62.3689" filterUnits="userSpaceOnUse" color-interpolation-filters="sRGB">
<feFlood flood-opacity="0" result="BackgroundImageFix"/>
<feColorMatrix in="SourceAlpha" type="matrix" values="0 0 0 0 0 0 0 0 0 0 0 0 0 0 0 0 0 0 127 0" result="hardAlpha"/>
<feOffset dy="4"/>
<feGaussianBlur stdDeviation="2"/>
<feComposite in2="hardAlpha" operator="out"/>
<feColorMatrix type="matrix" values="0 0 0 0 0 0 0 0 0 0 0 0 0 0 0 0 0 0 0.25 0"/>
<feBlend mode="normal" in2="BackgroundImageFix" result="effect1_dropShadow_1_799"/>
<feBlend mode="normal" in="SourceGraphic" in2="effect1_dropShadow_1_799" result="shape"/>
</filter>
<clipPath id="clip0_1_799">
<rect width="175" height="54.3689" fill="white" transform="translate(4)"/>
</clipPath>
</defs>
</svg>
